<svg width="40" height="40" viewBox="0 0 40 40" fill="none" xmlns="http://www.w3.org/2000/svg">
<path fill-rule="evenodd" clip-rule="evenodd" d="M19 20V27H26V20H19ZM18.5 19C18.2239 19 18 19.2239 18 19.5V27.5C18 27.7761 18.2239 28 18.5 28H26.5C26.7761 28 27 27.7761 27 27.5V19.5C27 19.2239 26.7761 19 26.5 19H18.5Z" fill="#477C29"/>
<path d="M20 23H21V24H20V23Z" fill="#477C29"/>
<path d="M20 21H21V22H20V21Z" fill="#477C29"/>
<path d="M22 23H23V24H22V23Z" fill="#477C29"/>
<path d="M24 23H25V24H24V23Z" fill="#477C29"/>
<path d="M22 21H23V22H22V21Z" fill="#477C29"/>
<path d="M24 21H25V22H24V21Z" fill="#477C29"/>
<path d="M22 25H23V26H22V25Z" fill="#477C29"/>
<path d="M24 25H25V26H24V25Z" fill="#477C29"/>
<path d="M20 25H21V26H20V25Z" fill="#477C29"/>
<path d="M13 14V27H17V28H12.5C12.2239 28 12 27.7761 12 27.5V13.5C12 13.2239 12.2239 13 12.5 13H22.5C22.7761 13 23 13.2239 23 13.5V18H22V14H13Z" fill="#477C29"/>
<path d="M21 18V17H20V18H21Z" fill="#477C29"/>
<path d="M19 18V17H18V18H19Z" fill="#477C29"/>
<path d="M17 18V17H16V18H17Z" fill="#477C29"/>
<path d="M17 26V25H16V26H17Z" fill="#477C29"/>
<path d="M17 24V23H16V24H17Z" fill="#477C29"/>
<path d="M17 22V21H16V22H17Z" fill="#477C29"/>
<path d="M17 20V19H16V20H17Z" fill="#477C29"/>
<path d="M16 15H17V16H16V15Z" fill="#477C29"/>
<path d="M14 15H15V16H14V15Z" fill="#477C29"/>
<path d="M15 17H14V18H15V17Z" fill="#477C29"/>
<path d="M14 19H15V20H14V19Z" fill="#477C29"/>
<path d="M15 21H14V22H15V21Z" fill="#477C29"/>
<path d="M14 23H15V24H14V23Z" fill="#477C29"/>
<path d="M15 25H14V26H15V25Z" fill="#477C29"/>
<path d="M18 15H19V16H18V15Z" fill="#477C29"/>
<path d="M21 15H20V16H21V15Z" fill="#477C29"/>
</svg>
