<svg width="40" height="40" viewBox="0 0 40 40" fill="none" xmlns="http://www.w3.org/2000/svg">
<path fill-rule="evenodd" clip-rule="evenodd" d="M14.9444 15C14.4228 15 14 15.4228 14 15.9444V25.0556C14 25.5772 14.4228 26 14.9444 26H25.0556C25.5772 26 26 25.5772 26 25.0556V15.9444C26 15.4228 25.5772 15 25.0556 15H14.9444ZM13 15.9444C13 14.8706 13.8706 14 14.9444 14H25.0556C26.1294 14 27 14.8706 27 15.9444V25.0556C27 26.1294 26.1294 27 25.0556 27H14.9444C13.8706 27 13 26.1294 13 25.0556V15.9444Z" fill="#181818"/>
<path fill-rule="evenodd" clip-rule="evenodd" d="M22.5 13C22.7761 13 23 13.2239 23 13.5V15.5C23 15.7761 22.7761 16 22.5 16C22.2239 16 22 15.7761 22 15.5V13.5C22 13.2239 22.2239 13 22.5 13Z" fill="#181818"/>
<path fill-rule="evenodd" clip-rule="evenodd" d="M17.5 13C17.7761 13 18 13.2239 18 13.5V15.5C18 15.7761 17.7761 16 17.5 16C17.2239 16 17 15.7761 17 15.5V13.5C17 13.2239 17.2239 13 17.5 13Z" fill="#181818"/>
<path fill-rule="evenodd" clip-rule="evenodd" d="M13 18.5C13 18.2239 13.2239 18 13.5 18H26.5C26.7761 18 27 18.2239 27 18.5C27 18.7761 26.7761 19 26.5 19H13.5C13.2239 19 13 18.7761 13 18.5Z" fill="#181818"/>
</svg>
