<svg width="40" height="40" viewBox="0 0 40 40" fill="none" xmlns="http://www.w3.org/2000/svg">
<g clip-path="url(#clip0_137_193)">
<path fill-rule="evenodd" clip-rule="evenodd" d="M14.1347 22.3945C14.8422 21.814 15.7839 21.5 16.75 21.5H23.25C24.2161 21.5 25.1578 21.814 25.8653 22.3945C26.5755 22.9773 27 23.7913 27 24.6667V27C27 27.2761 26.7761 27.5 26.5 27.5C26.2239 27.5 26 27.2761 26 27V24.6667C26 24.1276 25.7397 23.585 25.2309 23.1676C24.7194 22.7479 24.0078 22.5 23.25 22.5H16.75C15.9922 22.5 15.2806 22.7479 14.7691 23.1676C14.2603 23.585 14 24.1276 14 24.6667V27C14 27.2761 13.7761 27.5 13.5 27.5C13.2239 27.5 13 27.2761 13 27V24.6667C13 23.7913 13.4245 22.9773 14.1347 22.3945Z" fill="#1B5F9E"/>
<path fill-rule="evenodd" clip-rule="evenodd" d="M20 12.5C18.3431 12.5 17 13.8431 17 15.5C17 17.1569 18.3431 18.5 20 18.5C21.6569 18.5 23 17.1569 23 15.5C23 13.8431 21.6569 12.5 20 12.5ZM16 15.5C16 13.2909 17.7909 11.5 20 11.5C22.2091 11.5 24 13.2909 24 15.5C24 17.7091 22.2091 19.5 20 19.5C17.7909 19.5 16 17.7091 16 15.5Z" fill="#1B5F9E"/>
</g>
<defs>
<clipPath id="clip0_137_193">
<rect width="16" height="16" fill="white" transform="translate(12 11.5)"/>
</clipPath>
</defs>
</svg>
