<svg width="40" height="40" viewBox="0 0 40 40" fill="none" xmlns="http://www.w3.org/2000/svg">
<path fill-rule="evenodd" clip-rule="evenodd" d="M12 20.5C12 20.2239 12.2388 20 12.5333 20H16.8561C17.0764 20 17.2741 20.127 17.3536 20.3196C17.5989 20.9141 17.933 21.3229 18.3457 21.5871C18.7586 21.8514 19.2955 22 20 22C20.7045 22 21.2414 21.8514 21.6543 21.5871C22.067 21.3229 22.4011 20.9141 22.6464 20.3196C22.7259 20.127 22.9236 20 23.1439 20H27.4667C27.7612 20 28 20.2239 28 20.5C28 20.7761 27.7612 21 27.4667 21H23.4955C23.1981 21.5909 22.7911 22.0703 22.2558 22.4129C21.6274 22.8152 20.8675 23 20 23C19.1325 23 18.3726 22.8152 17.7442 22.4129C17.2089 22.0703 16.8019 21.5909 16.5045 21H12.5333C12.2388 21 12 20.7761 12 20.5Z" fill="#181818"/>
<path fill-rule="evenodd" clip-rule="evenodd" d="M13 20L15.3524 14.8934L15.38 14.825C15.3843 14.816 15.3886 14.807 15.393 14.7981C15.4107 14.7622 15.4297 14.7273 15.45 14.6932C15.5642 14.5014 15.718 14.3394 15.9002 14.2201C15.9752 14.171 16.0539 14.1298 16.1354 14.0968C16.2959 14.0318 16.4669 13.9987 16.64 14H23.36C23.6209 13.9981 23.8771 14.0743 24.0998 14.2201C24.3224 14.3658 24.5026 14.5754 24.62 14.825L27 20V24.5C27 24.8978 26.8525 25.2794 26.5899 25.5607C26.3274 25.842 25.9713 26 25.6 26H14.4C13.63 26 13 25.325 13 24.5V20ZM23.3568 13C23.8175 12.9974 24.2647 13.1327 24.6476 13.3835C25.0308 13.6344 25.3318 13.9889 25.5249 14.3995L25.5286 14.4072L27.9085 19.5822C27.9688 19.7132 28 19.8558 28 20V24.5C28 25.1416 27.7627 25.7697 27.321 26.243C26.8771 26.7186 26.2597 27 25.6 27H14.4C13.0139 27 12 25.8112 12 24.5V20C12 19.852 12.0328 19.7059 12.0962 19.5721L14 15.5C14.0511 15.2998 14.4238 14.5085 14.4751 14.3995C14.6682 13.9889 14.9692 13.6344 15.3524 13.3835C15.7353 13.1327 16.1825 12.9974 16.6432 13M16.6432 13H23.3568Z" fill="#181818"/>
</svg>
