<svg width="40" height="40" viewBox="0 0 40 40" fill="none" xmlns="http://www.w3.org/2000/svg">
<path fill-rule="evenodd" clip-rule="evenodd" d="M14.1347 22.8945C14.8422 22.314 15.7839 22 16.75 22H23.25C24.2161 22 25.1578 22.314 25.8653 22.8945C26.5755 23.4773 27 24.2913 27 25.1667V27.5C27 27.7761 26.7761 28 26.5 28C26.2239 28 26 27.7761 26 27.5V25.1667C26 24.6276 25.7397 24.085 25.2309 23.6676C24.7194 23.2479 24.0078 23 23.25 23H16.75C15.9922 23 15.2806 23.2479 14.7691 23.6676C14.2603 24.085 14 24.6276 14 25.1667V27.5C14 27.7761 13.7761 28 13.5 28C13.2239 28 13 27.7761 13 27.5V25.1667C13 24.2913 13.4245 23.4773 14.1347 22.8945Z" fill="#181818"/>
<path fill-rule="evenodd" clip-rule="evenodd" d="M20 13C18.3431 13 17 14.3431 17 16C17 17.6569 18.3431 19 20 19C21.6569 19 23 17.6569 23 16C23 14.3431 21.6569 13 20 13ZM16 16C16 13.7909 17.7909 12 20 12C22.2091 12 24 13.7909 24 16C24 18.2091 22.2091 20 20 20C17.7909 20 16 18.2091 16 16Z" fill="#181818"/>
</svg>
