<svg width="406" height="9" viewBox="0 0 406 9" fill="none" xmlns="http://www.w3.org/2000/svg">
<path d="M9.828 0.12902V8.87102H8.04V3.84302C8.04 3.72702 8.042 3.60102 8.046 3.46502C8.054 3.32902 8.066 3.19102 8.082 3.05102L5.76 7.54502C5.688 7.68502 5.59 7.79102 5.466 7.86302C5.346 7.93502 5.208 7.97102 5.052 7.97102H4.776C4.62 7.97102 4.48 7.93502 4.356 7.86302C4.236 7.79102 4.14 7.68502 4.068 7.54502L1.746 3.03902C1.758 3.18302 1.768 3.32502 1.776 3.46502C1.784 3.60102 1.788 3.72702 1.788 3.84302V8.87102H0V0.12902H1.548C1.636 0.12902 1.712 0.13102 1.776 0.13502C1.844 0.13902 1.904 0.15102 1.956 0.17102C2.008 0.19102 2.054 0.22302 2.094 0.26702C2.138 0.30702 2.18 0.36502 2.22 0.44102L4.47 4.87502C4.55 5.02702 4.626 5.18502 4.698 5.34902C4.774 5.51302 4.846 5.68102 4.914 5.85302C4.982 5.67702 5.052 5.50502 5.124 5.33702C5.2 5.16902 5.28 5.00902 5.364 4.85702L7.608 0.44102C7.648 0.36502 7.688 0.30702 7.728 0.26702C7.772 0.22302 7.82 0.19102 7.872 0.17102C7.924 0.15102 7.982 0.13902 8.046 0.13502C8.114 0.13102 8.192 0.12902 8.28 0.12902H9.828Z" fill="white"/>
<path d="M18.1075 5.54702V8.87102H16.0795V5.54702L12.9115 0.12902H14.6995C14.8755 0.12902 15.0135 0.17102 15.1135 0.25502C15.2175 0.33502 15.3035 0.43902 15.3715 0.56702L16.6075 3.11102C16.7115 3.31102 16.8055 3.49902 16.8895 3.67502C16.9735 3.84702 17.0475 4.01702 17.1115 4.18502C17.1715 4.01302 17.2395 3.84102 17.3155 3.66902C17.3955 3.49302 17.4875 3.30702 17.5915 3.11102L18.8155 0.56702C18.8435 0.51502 18.8775 0.46302 18.9175 0.41102C18.9575 0.35902 19.0035 0.31302 19.0555 0.27302C19.1115 0.22902 19.1735 0.19502 19.2415 0.17102C19.3135 0.14302 19.3915 0.12902 19.4755 0.12902H21.2755L18.1075 5.54702Z" fill="white"/>
<path d="M34.9123 6.60902C34.9603 6.60902 35.0083 6.61902 35.0563 6.63902C35.1043 6.65502 35.1503 6.68502 35.1943 6.72902L35.9983 7.57502C35.6463 8.03502 35.2043 8.38302 34.6723 8.61902C34.1443 8.85102 33.5183 8.96702 32.7943 8.96702C32.1303 8.96702 31.5343 8.85502 31.0063 8.63102C30.4823 8.40302 30.0363 8.09102 29.6683 7.69502C29.3043 7.29502 29.0243 6.82302 28.8283 6.27902C28.6323 5.73102 28.5343 5.13702 28.5343 4.49702C28.5343 3.84502 28.6403 3.24702 28.8523 2.70302C29.0643 2.15502 29.3623 1.68302 29.7463 1.28702C30.1303 0.89102 30.5903 0.58302 31.1263 0.36302C31.6623 0.14302 32.2523 0.03302 32.8963 0.03302C33.2243 0.03302 33.5323 0.06302 33.8203 0.12302C34.1123 0.17902 34.3843 0.25902 34.6363 0.36302C34.8883 0.46302 35.1203 0.58502 35.3323 0.72902C35.5443 0.87302 35.7323 1.02902 35.8963 1.19702L35.2123 2.11502C35.1683 2.17102 35.1163 2.22302 35.0563 2.27102C34.9963 2.31502 34.9123 2.33702 34.8043 2.33702C34.7323 2.33702 34.6643 2.32102 34.6003 2.28902C34.5363 2.25702 34.4683 2.21902 34.3963 2.17502C34.3243 2.12702 34.2443 2.07702 34.1563 2.02502C34.0723 1.96902 33.9703 1.91902 33.8503 1.87502C33.7343 1.82702 33.5963 1.78702 33.4363 1.75502C33.2803 1.72302 33.0963 1.70702 32.8843 1.70702C32.5483 1.70702 32.2403 1.76902 31.9603 1.89302C31.6843 2.01702 31.4443 2.19902 31.2403 2.43902C31.0403 2.67502 30.8843 2.96702 30.7723 3.31502C30.6643 3.65902 30.6103 4.05302 30.6103 4.49702C30.6103 4.94502 30.6703 5.34302 30.7903 5.69102C30.9143 6.03902 31.0803 6.33302 31.2883 6.57302C31.5003 6.80902 31.7463 6.98902 32.0263 7.11302C32.3063 7.23702 32.6063 7.29902 32.9263 7.29902C33.1103 7.29902 33.2783 7.29102 33.4303 7.27502C33.5823 7.25502 33.7243 7.22502 33.8563 7.18502C33.9883 7.14102 34.1123 7.08502 34.2283 7.01702C34.3443 6.94502 34.4623 6.85502 34.5823 6.74702C34.6303 6.70702 34.6823 6.67502 34.7383 6.65102C34.7943 6.62302 34.8523 6.60902 34.9123 6.60902Z" fill="white"/>
<path d="M42.1276 4.23902C42.4036 4.23902 42.6376 4.20502 42.8296 4.13702C43.0256 4.06502 43.1856 3.96702 43.3096 3.84302C43.4336 3.71902 43.5236 3.57502 43.5796 3.41102C43.6356 3.24302 43.6636 3.06302 43.6636 2.87102C43.6636 2.48702 43.5376 2.18702 43.2856 1.97102C43.0376 1.75502 42.6516 1.64702 42.1276 1.64702H41.3116V4.23902H42.1276ZM46.4356 8.87102H44.5996C44.2596 8.87102 44.0156 8.74302 43.8676 8.48702L42.4156 5.94902C42.3476 5.84102 42.2716 5.76302 42.1876 5.71502C42.1036 5.66302 41.9836 5.63702 41.8276 5.63702H41.3116V8.87102H39.2836V0.12902H42.1276C42.7596 0.12902 43.2976 0.19502 43.7416 0.32702C44.1896 0.45502 44.5536 0.63502 44.8336 0.86702C45.1176 1.09902 45.3236 1.37302 45.4516 1.68902C45.5796 2.00502 45.6436 2.34902 45.6436 2.72102C45.6436 3.00502 45.6056 3.27302 45.5296 3.52502C45.4536 3.77702 45.3416 4.01102 45.1936 4.22702C45.0456 4.43902 44.8616 4.62902 44.6416 4.79702C44.4256 4.96502 44.1756 5.10302 43.8916 5.21102C44.0236 5.27902 44.1476 5.36502 44.2636 5.46902C44.3796 5.56902 44.4836 5.68902 44.5756 5.82902L46.4356 8.87102Z" fill="white"/>
<path d="M59.3983 0.12902V8.87102H57.6103V3.84302C57.6103 3.72702 57.6123 3.60102 57.6163 3.46502C57.6243 3.32902 57.6363 3.19102 57.6523 3.05102L55.3303 7.54502C55.2583 7.68502 55.1603 7.79102 55.0363 7.86302C54.9163 7.93502 54.7783 7.97102 54.6223 7.97102H54.3463C54.1903 7.97102 54.0503 7.93502 53.9263 7.86302C53.8063 7.79102 53.7103 7.68502 53.6383 7.54502L51.3163 3.03902C51.3283 3.18302 51.3383 3.32502 51.3463 3.46502C51.3543 3.60102 51.3583 3.72702 51.3583 3.84302V8.87102H49.5703V0.12902H51.1183C51.2063 0.12902 51.2823 0.13102 51.3463 0.13502C51.4143 0.13902 51.4743 0.15102 51.5263 0.17102C51.5783 0.19102 51.6243 0.22302 51.6643 0.26702C51.7083 0.30702 51.7503 0.36502 51.7903 0.44102L54.0403 4.87502C54.1203 5.02702 54.1963 5.18502 54.2683 5.34902C54.3443 5.51302 54.4163 5.68102 54.4843 5.85302C54.5523 5.67702 54.6223 5.50502 54.6943 5.33702C54.7703 5.16902 54.8503 5.00902 54.9343 4.85702L57.1783 0.44102C57.2183 0.36502 57.2583 0.30702 57.2983 0.26702C57.3423 0.22302 57.3903 0.19102 57.4423 0.17102C57.4943 0.15102 57.5523 0.13902 57.6163 0.13502C57.6843 0.13102 57.7623 0.12902 57.8503 0.12902H59.3983Z" fill="white"/>
<line x1="75.8983" y1="2.18557e-08" x2="75.8983" y2="9" stroke="white" stroke-opacity="0.4"/>
<path d="M97.9623 7.01999C98.0263 7.01999 98.0843 7.04599 98.1363 7.09799L98.5923 7.59599C98.2403 8.00399 97.8123 8.32199 97.3083 8.54999C96.8083 8.77799 96.2043 8.89199 95.4963 8.89199C94.8763 8.89199 94.3143 8.78599 93.8103 8.57399C93.3063 8.35799 92.8763 8.05799 92.5203 7.67399C92.1643 7.28599 91.8883 6.82199 91.6923 6.28199C91.4963 5.74199 91.3983 5.14799 91.3983 4.49999C91.3983 3.85199 91.5023 3.25799 91.7103 2.71799C91.9223 2.17799 92.2183 1.71399 92.5983 1.32599C92.9783 0.93799 93.4323 0.63799 93.9603 0.42599C94.4923 0.20999 95.0783 0.10199 95.7183 0.10199C96.3503 0.10199 96.8943 0.19999 97.3503 0.39599C97.8103 0.59199 98.2183 0.85799 98.5743 1.19399L98.1963 1.72799C98.1683 1.76799 98.1363 1.80199 98.1003 1.82999C98.0643 1.85399 98.0123 1.86599 97.9443 1.86599C97.8923 1.86599 97.8363 1.84799 97.7763 1.81199C97.7203 1.77199 97.6523 1.72399 97.5723 1.66799C97.4923 1.61199 97.3983 1.55199 97.2903 1.48799C97.1823 1.42399 97.0543 1.36399 96.9063 1.30799C96.7583 1.25199 96.5863 1.20599 96.3903 1.16999C96.1943 1.12999 95.9683 1.10999 95.7123 1.10999C95.2523 1.10999 94.8303 1.18999 94.4463 1.34999C94.0663 1.50599 93.7383 1.72999 93.4623 2.02199C93.1863 2.31399 92.9703 2.66999 92.8143 3.08999C92.6623 3.50999 92.5863 3.97999 92.5863 4.49999C92.5863 5.03599 92.6623 5.51399 92.8143 5.93399C92.9703 6.35399 93.1803 6.70999 93.4443 7.00199C93.7123 7.28999 94.0283 7.50999 94.3923 7.66199C94.7563 7.81399 95.1483 7.88999 95.5683 7.88999C95.8243 7.88999 96.0543 7.87599 96.2583 7.84799C96.4623 7.81599 96.6503 7.76799 96.8223 7.70399C96.9983 7.63999 97.1603 7.55999 97.3083 7.46399C97.4603 7.36399 97.6123 7.24599 97.7643 7.10999C97.8323 7.04999 97.8983 7.01999 97.9623 7.01999Z" fill="white"/>
<path d="M105.859 7.87199C106.215 7.87199 106.533 7.81199 106.813 7.69199C107.093 7.57199 107.329 7.40399 107.521 7.18799C107.717 6.97199 107.865 6.71399 107.965 6.41399C108.069 6.11399 108.121 5.78399 108.121 5.42399V0.19799H109.279V5.42399C109.279 5.91999 109.199 6.37999 109.039 6.80399C108.883 7.22799 108.657 7.59599 108.361 7.90799C108.069 8.21599 107.711 8.45799 107.287 8.63399C106.863 8.80999 106.387 8.89799 105.859 8.89799C105.331 8.89799 104.855 8.80999 104.431 8.63399C104.007 8.45799 103.647 8.21599 103.351 7.90799C103.055 7.59599 102.827 7.22799 102.667 6.80399C102.511 6.37999 102.433 5.91999 102.433 5.42399V0.19799H103.591V5.41799C103.591 5.77799 103.641 6.10799 103.741 6.40799C103.845 6.70799 103.993 6.96599 104.185 7.18199C104.381 7.39799 104.619 7.56799 104.899 7.69199C105.183 7.81199 105.503 7.87199 105.859 7.87199Z" fill="white"/>
<path d="M118.087 1.54199C118.051 1.60199 118.013 1.64799 117.973 1.67999C117.933 1.70799 117.881 1.72199 117.817 1.72199C117.749 1.72199 117.669 1.68799 117.577 1.61999C117.489 1.55199 117.375 1.47799 117.235 1.39799C117.099 1.31399 116.933 1.23799 116.737 1.16999C116.545 1.10199 116.311 1.06799 116.035 1.06799C115.775 1.06799 115.545 1.10399 115.345 1.17599C115.145 1.24399 114.977 1.33799 114.841 1.45799C114.709 1.57799 114.609 1.71999 114.541 1.88399C114.473 2.04399 114.439 2.21799 114.439 2.40599C114.439 2.64599 114.497 2.84599 114.613 3.00599C114.733 3.16199 114.889 3.29599 115.081 3.40799C115.277 3.51999 115.497 3.61799 115.741 3.70199C115.989 3.78199 116.241 3.86599 116.497 3.95399C116.757 4.04199 117.009 4.14199 117.253 4.25399C117.501 4.36199 117.721 4.49999 117.913 4.66799C118.109 4.83599 118.265 5.04199 118.381 5.28599C118.501 5.52999 118.561 5.82999 118.561 6.18599C118.561 6.56199 118.497 6.91599 118.369 7.24799C118.241 7.57599 118.053 7.86199 117.805 8.10599C117.561 8.34999 117.259 8.54199 116.899 8.68199C116.543 8.82199 116.137 8.89199 115.681 8.89199C115.125 8.89199 114.617 8.79199 114.157 8.59199C113.701 8.38799 113.311 8.11399 112.987 7.76999L113.323 7.21799C113.355 7.17399 113.393 7.13799 113.437 7.10999C113.485 7.07799 113.537 7.06199 113.593 7.06199C113.677 7.06199 113.773 7.10799 113.881 7.19999C113.989 7.28799 114.123 7.38599 114.283 7.49399C114.447 7.60199 114.643 7.70199 114.871 7.79399C115.103 7.88199 115.385 7.92599 115.717 7.92599C115.993 7.92599 116.239 7.88799 116.455 7.81199C116.671 7.73599 116.853 7.62999 117.001 7.49399C117.153 7.35399 117.269 7.18799 117.349 6.99599C117.429 6.80399 117.469 6.58999 117.469 6.35399C117.469 6.09399 117.409 5.88199 117.289 5.71799C117.173 5.54999 117.019 5.40999 116.827 5.29799C116.635 5.18599 116.415 5.09199 116.167 5.01599C115.923 4.93599 115.671 4.85599 115.411 4.77599C115.155 4.69199 114.903 4.59599 114.655 4.48799C114.411 4.37999 114.193 4.23999 114.001 4.06799C113.809 3.89599 113.653 3.68199 113.533 3.42599C113.417 3.16599 113.359 2.84599 113.359 2.46599C113.359 2.16199 113.417 1.86799 113.533 1.58399C113.653 1.29999 113.825 1.04799 114.049 0.82799C114.273 0.60799 114.549 0.43199 114.877 0.29999C115.209 0.16799 115.589 0.10199 116.017 0.10199C116.497 0.10199 116.935 0.17799 117.331 0.32999C117.727 0.48199 118.073 0.70199 118.369 0.98999L118.087 1.54199Z" fill="white"/>
<path d="M128.302 0.19799V1.17599H125.524V8.79599H124.36V1.17599H121.57V0.19799H128.302Z" fill="white"/>
<path d="M139.324 4.49999C139.324 5.14399 139.222 5.73599 139.018 6.27599C138.814 6.81199 138.526 7.27399 138.154 7.66199C137.782 8.04999 137.334 8.35199 136.81 8.56799C136.29 8.77999 135.714 8.88599 135.082 8.88599C134.45 8.88599 133.874 8.77999 133.354 8.56799C132.834 8.35199 132.388 8.04999 132.016 7.66199C131.644 7.27399 131.356 6.81199 131.152 6.27599C130.948 5.73599 130.846 5.14399 130.846 4.49999C130.846 3.85599 130.948 3.26599 131.152 2.72999C131.356 2.18999 131.644 1.72599 132.016 1.33799C132.388 0.94599 132.834 0.64199 133.354 0.42599C133.874 0.20999 134.45 0.10199 135.082 0.10199C135.714 0.10199 136.29 0.20999 136.81 0.42599C137.334 0.64199 137.782 0.94599 138.154 1.33799C138.526 1.72599 138.814 2.18999 139.018 2.72999C139.222 3.26599 139.324 3.85599 139.324 4.49999ZM138.13 4.49999C138.13 3.97199 138.058 3.49799 137.914 3.07799C137.77 2.65799 137.566 2.30399 137.302 2.01599C137.038 1.72399 136.718 1.49999 136.342 1.34399C135.966 1.18799 135.546 1.10999 135.082 1.10999C134.622 1.10999 134.204 1.18799 133.828 1.34399C133.452 1.49999 133.13 1.72399 132.862 2.01599C132.598 2.30399 132.394 2.65799 132.25 3.07799C132.106 3.49799 132.034 3.97199 132.034 4.49999C132.034 5.02799 132.106 5.50199 132.25 5.92199C132.394 6.33799 132.598 6.69199 132.862 6.98399C133.13 7.27199 133.452 7.49399 133.828 7.64999C134.204 7.80199 134.622 7.87799 135.082 7.87799C135.546 7.87799 135.966 7.80199 136.342 7.64999C136.718 7.49399 137.038 7.27199 137.302 6.98399C137.566 6.69199 137.77 6.33799 137.914 5.92199C138.058 5.50199 138.13 5.02799 138.13 4.49999Z" fill="white"/>
<path d="M147.542 5.68799C147.598 5.78399 147.646 5.88599 147.686 5.99399C147.73 6.09799 147.772 6.20399 147.812 6.31199C147.852 6.19999 147.894 6.09399 147.938 5.99399C147.982 5.88999 148.032 5.78599 148.088 5.68199L150.998 0.39599C151.05 0.30399 151.104 0.24799 151.16 0.22799C151.216 0.20799 151.296 0.19799 151.4 0.19799H152.258V8.79599H151.238V2.47799C151.238 2.39399 151.24 2.30399 151.244 2.20799C151.248 2.11199 151.254 2.01399 151.262 1.91399L148.316 7.28999C148.216 7.46999 148.076 7.55999 147.896 7.55999H147.728C147.548 7.55999 147.408 7.46999 147.308 7.28999L144.296 1.89599C144.308 1.99999 144.316 2.10199 144.32 2.20199C144.328 2.30199 144.332 2.39399 144.332 2.47799V8.79599H143.312V0.19799H144.17C144.274 0.19799 144.354 0.20799 144.41 0.22799C144.466 0.24799 144.52 0.30399 144.572 0.39599L147.542 5.68799Z" fill="white"/>
<path d="M162.05 0.19799V1.14599H157.922V4.00199H161.264V4.91399H157.922V7.84799H162.05V8.79599H156.752V0.19799H162.05Z" fill="white"/>
<path d="M167.402 5.20799V8.79599H166.244V0.19799H168.674C169.218 0.19799 169.688 0.25399 170.084 0.36599C170.48 0.47399 170.806 0.63199 171.062 0.83999C171.322 1.04799 171.514 1.29999 171.638 1.59599C171.762 1.88799 171.824 2.21599 171.824 2.57999C171.824 2.88399 171.776 3.16799 171.68 3.43199C171.584 3.69599 171.444 3.93399 171.26 4.14599C171.08 4.35399 170.858 4.53199 170.594 4.67999C170.334 4.82799 170.038 4.93999 169.706 5.01599C169.85 5.09999 169.978 5.22199 170.09 5.38199L172.598 8.79599H171.566C171.354 8.79599 171.198 8.71399 171.098 8.54999L168.866 5.47799C168.798 5.38199 168.724 5.31399 168.644 5.27399C168.564 5.22999 168.444 5.20799 168.284 5.20799H167.402ZM167.402 4.36199H168.62C168.96 4.36199 169.258 4.32199 169.514 4.24199C169.774 4.15799 169.99 4.04199 170.162 3.89399C170.338 3.74199 170.47 3.56199 170.558 3.35399C170.646 3.14599 170.69 2.91599 170.69 2.66399C170.69 2.15199 170.52 1.76599 170.18 1.50599C169.844 1.24599 169.342 1.11599 168.674 1.11599H167.402V4.36199Z" fill="white"/>
<path d="M182.245 5.20799V8.79599H181.087V0.19799H183.517C184.061 0.19799 184.531 0.25399 184.927 0.36599C185.323 0.47399 185.649 0.63199 185.905 0.83999C186.165 1.04799 186.357 1.29999 186.481 1.59599C186.605 1.88799 186.667 2.21599 186.667 2.57999C186.667 2.88399 186.619 3.16799 186.523 3.43199C186.427 3.69599 186.287 3.93399 186.103 4.14599C185.923 4.35399 185.701 4.53199 185.437 4.67999C185.177 4.82799 184.881 4.93999 184.549 5.01599C184.693 5.09999 184.821 5.22199 184.933 5.38199L187.441 8.79599H186.409C186.197 8.79599 186.041 8.71399 185.941 8.54999L183.709 5.47799C183.641 5.38199 183.567 5.31399 183.487 5.27399C183.407 5.22999 183.287 5.20799 183.127 5.20799H182.245ZM182.245 4.36199H183.463C183.803 4.36199 184.101 4.32199 184.357 4.24199C184.617 4.15799 184.833 4.04199 185.005 3.89399C185.181 3.74199 185.313 3.56199 185.401 3.35399C185.489 3.14599 185.533 2.91599 185.533 2.66399C185.533 2.15199 185.363 1.76599 185.023 1.50599C184.687 1.24599 184.185 1.11599 183.517 1.11599H182.245V4.36199Z" fill="white"/>
<path d="M196.388 0.19799V1.14599H192.26V4.00199H195.602V4.91399H192.26V7.84799H196.388V8.79599H191.09V0.19799H196.388Z" fill="white"/>
<path d="M201.626 7.81799H205.346V8.79599H200.462V0.19799H201.626V7.81799Z" fill="white"/>
<path d="M216.101 8.79599H215.201C215.097 8.79599 215.013 8.76999 214.949 8.71799C214.885 8.66599 214.837 8.59999 214.805 8.51999L214.001 6.44399H210.143L209.339 8.51999C209.311 8.59199 209.263 8.65599 209.195 8.71199C209.127 8.76799 209.043 8.79599 208.943 8.79599H208.043L211.481 0.19799H212.663L216.101 8.79599ZM210.467 5.60399H213.677L212.327 2.10599C212.239 1.88999 212.153 1.61999 212.069 1.29599C212.025 1.45999 211.981 1.61199 211.937 1.75199C211.897 1.88799 211.857 2.00799 211.817 2.11199L210.467 5.60399Z" fill="white"/>
<path d="M224.642 0.19799V1.17599H221.864V8.79599H220.7V1.17599H217.91V0.19799H224.642Z" fill="white"/>
<path d="M229.644 8.79599H228.48V0.19799H229.644V8.79599Z" fill="white"/>
<path d="M242.33 4.49999C242.33 5.14399 242.228 5.73599 242.024 6.27599C241.82 6.81199 241.532 7.27399 241.16 7.66199C240.788 8.04999 240.34 8.35199 239.816 8.56799C239.296 8.77999 238.72 8.88599 238.088 8.88599C237.456 8.88599 236.88 8.77999 236.36 8.56799C235.84 8.35199 235.394 8.04999 235.022 7.66199C234.65 7.27399 234.362 6.81199 234.158 6.27599C233.954 5.73599 233.852 5.14399 233.852 4.49999C233.852 3.85599 233.954 3.26599 234.158 2.72999C234.362 2.18999 234.65 1.72599 235.022 1.33799C235.394 0.94599 235.84 0.64199 236.36 0.42599C236.88 0.20999 237.456 0.10199 238.088 0.10199C238.72 0.10199 239.296 0.20999 239.816 0.42599C240.34 0.64199 240.788 0.94599 241.16 1.33799C241.532 1.72599 241.82 2.18999 242.024 2.72999C242.228 3.26599 242.33 3.85599 242.33 4.49999ZM241.136 4.49999C241.136 3.97199 241.064 3.49799 240.92 3.07799C240.776 2.65799 240.572 2.30399 240.308 2.01599C240.044 1.72399 239.724 1.49999 239.348 1.34399C238.972 1.18799 238.552 1.10999 238.088 1.10999C237.628 1.10999 237.21 1.18799 236.834 1.34399C236.458 1.49999 236.136 1.72399 235.868 2.01599C235.604 2.30399 235.4 2.65799 235.256 3.07799C235.112 3.49799 235.04 3.97199 235.04 4.49999C235.04 5.02799 235.112 5.50199 235.256 5.92199C235.4 6.33799 235.604 6.69199 235.868 6.98399C236.136 7.27199 236.458 7.49399 236.834 7.64999C237.21 7.80199 237.628 7.87799 238.088 7.87799C238.552 7.87799 238.972 7.80199 239.348 7.64999C239.724 7.49399 240.044 7.27199 240.308 6.98399C240.572 6.69199 240.776 6.33799 240.92 5.92199C241.064 5.50199 241.136 5.02799 241.136 4.49999Z" fill="white"/>
<path d="M246.918 0.19799C247.022 0.19799 247.098 0.21199 247.146 0.23999C247.198 0.26399 247.256 0.31599 247.32 0.39599L252.3 6.87599C252.288 6.77199 252.28 6.67199 252.276 6.57599C252.272 6.47599 252.27 6.37999 252.27 6.28799V0.19799H253.29V8.79599H252.702C252.61 8.79599 252.532 8.77999 252.468 8.74799C252.408 8.71599 252.348 8.66199 252.288 8.58599L247.314 2.11199C247.322 2.21199 247.328 2.30999 247.332 2.40599C247.336 2.50199 247.338 2.58999 247.338 2.66999V8.79599H246.318V0.19799H246.918Z" fill="white"/>
<path d="M262.192 1.54199C262.156 1.60199 262.118 1.64799 262.078 1.67999C262.038 1.70799 261.986 1.72199 261.922 1.72199C261.854 1.72199 261.774 1.68799 261.682 1.61999C261.594 1.55199 261.48 1.47799 261.34 1.39799C261.204 1.31399 261.038 1.23799 260.842 1.16999C260.65 1.10199 260.416 1.06799 260.14 1.06799C259.88 1.06799 259.65 1.10399 259.45 1.17599C259.25 1.24399 259.082 1.33799 258.946 1.45799C258.814 1.57799 258.714 1.71999 258.646 1.88399C258.578 2.04399 258.544 2.21799 258.544 2.40599C258.544 2.64599 258.602 2.84599 258.718 3.00599C258.838 3.16199 258.994 3.29599 259.186 3.40799C259.382 3.51999 259.602 3.61799 259.846 3.70199C260.094 3.78199 260.346 3.86599 260.602 3.95399C260.862 4.04199 261.114 4.14199 261.358 4.25399C261.606 4.36199 261.826 4.49999 262.018 4.66799C262.214 4.83599 262.37 5.04199 262.486 5.28599C262.606 5.52999 262.666 5.82999 262.666 6.18599C262.666 6.56199 262.602 6.91599 262.474 7.24799C262.346 7.57599 262.158 7.86199 261.91 8.10599C261.666 8.34999 261.364 8.54199 261.004 8.68199C260.648 8.82199 260.242 8.89199 259.786 8.89199C259.23 8.89199 258.722 8.79199 258.262 8.59199C257.806 8.38799 257.416 8.11399 257.092 7.76999L257.428 7.21799C257.46 7.17399 257.498 7.13799 257.542 7.10999C257.59 7.07799 257.642 7.06199 257.698 7.06199C257.782 7.06199 257.878 7.10799 257.986 7.19999C258.094 7.28799 258.228 7.38599 258.388 7.49399C258.552 7.60199 258.748 7.70199 258.976 7.79399C259.208 7.88199 259.49 7.92599 259.822 7.92599C260.098 7.92599 260.344 7.88799 260.56 7.81199C260.776 7.73599 260.958 7.62999 261.106 7.49399C261.258 7.35399 261.374 7.18799 261.454 6.99599C261.534 6.80399 261.574 6.58999 261.574 6.35399C261.574 6.09399 261.514 5.88199 261.394 5.71799C261.278 5.54999 261.124 5.40999 260.932 5.29799C260.74 5.18599 260.52 5.09199 260.272 5.01599C260.028 4.93599 259.776 4.85599 259.516 4.77599C259.26 4.69199 259.008 4.59599 258.76 4.48799C258.516 4.37999 258.298 4.23999 258.106 4.06799C257.914 3.89599 257.758 3.68199 257.638 3.42599C257.522 3.16599 257.464 2.84599 257.464 2.46599C257.464 2.16199 257.522 1.86799 257.638 1.58399C257.758 1.29999 257.93 1.04799 258.154 0.82799C258.378 0.60799 258.654 0.43199 258.982 0.29999C259.314 0.16799 259.694 0.10199 260.122 0.10199C260.602 0.10199 261.04 0.17799 261.436 0.32999C261.832 0.48199 262.178 0.70199 262.474 0.98999L262.192 1.54199Z" fill="white"/>
<path d="M273.524 8.79599H272.354V4.88399H267.722V8.79599H266.552V0.19799H267.722V4.03199H272.354V0.19799H273.524V8.79599Z" fill="white"/>
<path d="M279.402 8.79599H278.238V0.19799H279.402V8.79599Z" fill="white"/>
<path d="M285.38 5.57999V8.79599H284.222V0.19799H286.76C287.304 0.19799 287.776 0.26199 288.176 0.38999C288.58 0.51399 288.914 0.69199 289.178 0.92399C289.442 1.15599 289.638 1.43599 289.766 1.76399C289.898 2.09199 289.964 2.45799 289.964 2.86199C289.964 3.26199 289.894 3.62799 289.754 3.95999C289.614 4.29199 289.408 4.57799 289.136 4.81799C288.868 5.05799 288.534 5.24599 288.134 5.38199C287.734 5.51399 287.276 5.57999 286.76 5.57999H285.38ZM285.38 4.65599H286.76C287.092 4.65599 287.384 4.61199 287.636 4.52399C287.892 4.43599 288.106 4.31399 288.278 4.15799C288.45 3.99799 288.58 3.80799 288.668 3.58799C288.756 3.36799 288.8 3.12599 288.8 2.86199C288.8 2.31399 288.63 1.88599 288.29 1.57799C287.954 1.26999 287.444 1.11599 286.76 1.11599H285.38V4.65599Z" fill="white"/>
<path d="M302.788 5.68799C302.844 5.78399 302.892 5.88599 302.932 5.99399C302.976 6.09799 303.018 6.20399 303.058 6.31199C303.098 6.19999 303.14 6.09399 303.184 5.99399C303.228 5.88999 303.278 5.78599 303.334 5.68199L306.244 0.39599C306.296 0.30399 306.35 0.24799 306.406 0.22799C306.462 0.20799 306.542 0.19799 306.646 0.19799H307.504V8.79599H306.484V2.47799C306.484 2.39399 306.486 2.30399 306.49 2.20799C306.494 2.11199 306.5 2.01399 306.508 1.91399L303.562 7.28999C303.462 7.46999 303.322 7.55999 303.142 7.55999H302.974C302.794 7.55999 302.654 7.46999 302.554 7.28999L299.542 1.89599C299.554 1.99999 299.562 2.10199 299.566 2.20199C299.574 2.30199 299.578 2.39399 299.578 2.47799V8.79599H298.558V0.19799H299.416C299.52 0.19799 299.6 0.20799 299.656 0.22799C299.712 0.24799 299.766 0.30399 299.818 0.39599L302.788 5.68799Z" fill="white"/>
<path d="M319.071 8.79599H318.171C318.067 8.79599 317.983 8.76999 317.919 8.71799C317.855 8.66599 317.807 8.59999 317.775 8.51999L316.971 6.44399H313.113L312.309 8.51999C312.281 8.59199 312.233 8.65599 312.165 8.71199C312.097 8.76799 312.013 8.79599 311.913 8.79599H311.013L314.451 0.19799H315.633L319.071 8.79599ZM313.437 5.60399H316.647L315.297 2.10599C315.209 1.88999 315.123 1.61999 315.039 1.29599C314.995 1.45999 314.951 1.61199 314.907 1.75199C314.867 1.88799 314.827 2.00799 314.787 2.11199L313.437 5.60399Z" fill="white"/>
<path d="M323.153 0.19799C323.257 0.19799 323.333 0.21199 323.381 0.23999C323.433 0.26399 323.491 0.31599 323.555 0.39599L328.535 6.87599C328.523 6.77199 328.515 6.67199 328.511 6.57599C328.507 6.47599 328.505 6.37999 328.505 6.28799V0.19799H329.525V8.79599H328.937C328.845 8.79599 328.767 8.77999 328.703 8.74799C328.643 8.71599 328.583 8.66199 328.523 8.58599L323.549 2.11199C323.557 2.21199 323.563 2.30999 323.567 2.40599C323.571 2.50199 323.573 2.58999 323.573 2.66999V8.79599H322.553V0.19799H323.153Z" fill="white"/>
<path d="M341.097 8.79599H340.197C340.093 8.79599 340.009 8.76999 339.945 8.71799C339.881 8.66599 339.833 8.59999 339.801 8.51999L338.997 6.44399H335.139L334.335 8.51999C334.307 8.59199 334.259 8.65599 334.191 8.71199C334.123 8.76799 334.039 8.79599 333.939 8.79599H333.039L336.477 0.19799H337.659L341.097 8.79599ZM335.463 5.60399H338.673L337.323 2.10599C337.235 1.88999 337.149 1.61999 337.065 1.29599C337.021 1.45999 336.977 1.61199 336.933 1.75199C336.893 1.88799 336.853 2.00799 336.813 2.11199L335.463 5.60399Z" fill="white"/>
<path d="M348.156 7.94999C348.388 7.94999 348.6 7.93999 348.792 7.91999C348.988 7.89599 349.172 7.86199 349.344 7.81799C349.516 7.77399 349.678 7.72199 349.83 7.66199C349.982 7.59799 350.134 7.52599 350.286 7.44599V5.54999H348.954C348.878 5.54999 348.816 5.52799 348.768 5.48399C348.724 5.43999 348.702 5.38599 348.702 5.32199V4.66199H351.342V7.96199C351.126 8.11799 350.9 8.25399 350.664 8.36999C350.432 8.48599 350.182 8.58399 349.914 8.66399C349.65 8.73999 349.366 8.79599 349.062 8.83199C348.758 8.87199 348.428 8.89199 348.072 8.89199C347.448 8.89199 346.876 8.78599 346.356 8.57399C345.836 8.35799 345.388 8.05799 345.012 7.67399C344.636 7.28599 344.342 6.82199 344.13 6.28199C343.922 5.74199 343.818 5.14799 343.818 4.49999C343.818 3.84399 343.92 3.24599 344.124 2.70599C344.332 2.16599 344.626 1.70399 345.006 1.31999C345.39 0.93199 345.852 0.63199 346.392 0.41999C346.936 0.20799 347.544 0.10199 348.216 0.10199C348.556 0.10199 348.872 0.12799 349.164 0.17999C349.456 0.22799 349.726 0.29999 349.974 0.39599C350.226 0.48799 350.458 0.60199 350.67 0.73799C350.882 0.86999 351.08 1.01999 351.264 1.18799L350.934 1.71599C350.866 1.82399 350.778 1.87799 350.67 1.87799C350.606 1.87799 350.536 1.85599 350.46 1.81199C350.36 1.75599 350.248 1.68799 350.124 1.60799C350 1.52799 349.848 1.45199 349.668 1.37999C349.492 1.30399 349.282 1.23999 349.038 1.18799C348.798 1.13599 348.512 1.10999 348.18 1.10999C347.696 1.10999 347.258 1.18999 346.866 1.34999C346.474 1.50599 346.14 1.73199 345.864 2.02799C345.588 2.31999 345.376 2.67599 345.228 3.09599C345.08 3.51199 345.006 3.97999 345.006 4.49999C345.006 5.04399 345.082 5.52999 345.234 5.95799C345.39 6.38199 345.608 6.74199 345.888 7.03799C346.168 7.33399 346.5 7.55999 346.884 7.71599C347.268 7.87199 347.692 7.94999 348.156 7.94999Z" fill="white"/>
<path d="M360.832 0.19799V1.14599H356.704V4.00199H360.046V4.91399H356.704V7.84799H360.832V8.79599H355.534V0.19799H360.832Z" fill="white"/>
<path d="M369.137 5.68799C369.193 5.78399 369.241 5.88599 369.281 5.99399C369.325 6.09799 369.367 6.20399 369.407 6.31199C369.447 6.19999 369.489 6.09399 369.533 5.99399C369.577 5.88999 369.627 5.78599 369.683 5.68199L372.593 0.39599C372.645 0.30399 372.699 0.24799 372.755 0.22799C372.811 0.20799 372.891 0.19799 372.995 0.19799H373.853V8.79599H372.833V2.47799C372.833 2.39399 372.835 2.30399 372.839 2.20799C372.843 2.11199 372.849 2.01399 372.857 1.91399L369.911 7.28999C369.811 7.46999 369.671 7.55999 369.491 7.55999H369.323C369.143 7.55999 369.003 7.46999 368.903 7.28999L365.891 1.89599C365.903 1.99999 365.911 2.10199 365.915 2.20199C365.923 2.30199 365.927 2.39399 365.927 2.47799V8.79599H364.907V0.19799H365.765C365.869 0.19799 365.949 0.20799 366.005 0.22799C366.061 0.24799 366.115 0.30399 366.167 0.39599L369.137 5.68799Z" fill="white"/>
<path d="M383.644 0.19799V1.14599H379.516V4.00199H382.858V4.91399H379.516V7.84799H383.644V8.79599H378.346V0.19799H383.644Z" fill="white"/>
<path d="M388.319 0.19799C388.423 0.19799 388.499 0.21199 388.547 0.23999C388.599 0.26399 388.657 0.31599 388.721 0.39599L393.701 6.87599C393.689 6.77199 393.681 6.67199 393.677 6.57599C393.673 6.47599 393.671 6.37999 393.671 6.28799V0.19799H394.691V8.79599H394.103C394.011 8.79599 393.933 8.77999 393.869 8.74799C393.809 8.71599 393.749 8.66199 393.689 8.58599L388.715 2.11199C388.723 2.21199 388.729 2.30999 388.733 2.40599C388.737 2.50199 388.739 2.58999 388.739 2.66999V8.79599H387.719V0.19799H388.319Z" fill="white"/>
<path d="M405.045 0.19799V1.17599H402.267V8.79599H401.103V1.17599H398.313V0.19799H405.045Z" fill="white"/>
</svg>
