<svg width="40" height="40" viewBox="0 0 40 40" fill="none" xmlns="http://www.w3.org/2000/svg">
<g clip-path="url(#clip0_137_201)">
<path fill-rule="evenodd" clip-rule="evenodd" d="M13.4884 17.9414C13.7581 17.9414 13.9767 18.16 13.9767 18.4297V26.2093C13.9767 26.4252 14.0625 26.6322 14.2151 26.7849C14.3678 26.9375 14.5748 27.0233 14.7907 27.0233H25.2093C25.4252 27.0233 25.6322 26.9375 25.7849 26.7849C25.9375 26.6322 26.0233 26.4252 26.0233 26.2093V18.4297C26.0233 18.16 26.2419 17.9414 26.5116 17.9414C26.7813 17.9414 27 18.16 27 18.4297V26.2093C27 26.6842 26.8113 27.1397 26.4755 27.4755C26.1397 27.8113 25.6842 28 25.2093 28H14.7907C14.3158 28 13.8603 27.8113 13.5245 27.4755C13.1887 27.1397 13 26.6842 13 26.2093L13 18.4297C13 18.16 13.2187 17.9414 13.4884 17.9414Z" fill="#181818"/>
<path fill-rule="evenodd" clip-rule="evenodd" d="M19.6816 12.1181C19.8647 11.9606 20.1353 11.9606 20.3184 12.1181L27.8301 18.7181C28.0346 18.894 28.0578 19.2023 27.8819 19.4068C27.706 19.6113 27.3977 19.6345 27.1932 19.4586L20 13.1325L12.8068 19.4586C12.6023 19.6345 12.294 19.6113 12.1181 19.4068C11.9422 19.2023 11.9654 18.894 12.1699 18.7181L19.6816 12.1181ZM17.0233 20.4884C17.0233 20.2187 17.2419 20 17.5116 20H22.4884C22.7581 20 22.9767 20.2187 22.9767 20.4884V27.5116C22.9767 27.7813 22.7581 28 22.4884 28C22.2187 28 22 27.7813 22 27.5116V20.9767H18V27.5116C18 27.7813 17.7813 28 17.5116 28C17.2419 28 17.0233 27.7813 17.0233 27.5116V20.4884Z" fill="#181818"/>
</g>
<defs>
<clipPath id="clip0_137_201">
<rect width="16" height="16" fill="white" transform="translate(12 12)"/>
</clipPath>
</defs>
</svg>
