<svg width="40" height="40" viewBox="0 0 40 40" fill="none" xmlns="http://www.w3.org/2000/svg">
<path fill-rule="evenodd" clip-rule="evenodd" d="M16.5 19C16.7761 19 17 19.2239 17 19.5V27.5C17 27.7761 16.7761 28 16.5 28C16.2239 28 16 27.7761 16 27.5V19.5C16 19.2239 16.2239 19 16.5 19Z" fill="#181818"/>
<path fill-rule="evenodd" clip-rule="evenodd" d="M25.5 19C25.7761 19 26 19.2239 26 19.5V27.5C26 27.7761 25.7761 28 25.5 28C25.2239 28 25 27.7761 25 27.5V19.5C25 19.2239 25.2239 19 25.5 19Z" fill="#181818"/>
<path fill-rule="evenodd" clip-rule="evenodd" d="M19.5 17C19.7761 17 20 17.2239 20 17.5V27.5C20 27.7761 19.7761 28 19.5 28C19.2239 28 19 27.7761 19 27.5V17.5C19 17.2239 19.2239 17 19.5 17Z" fill="#181818"/>
<path fill-rule="evenodd" clip-rule="evenodd" d="M22.5 13C22.7761 13 23 13.2239 23 13.5V27.5C23 27.7761 22.7761 28 22.5 28C22.2239 28 22 27.7761 22 27.5V13.5C22 13.2239 22.2239 13 22.5 13Z" fill="#181818"/>
<path fill-rule="evenodd" clip-rule="evenodd" d="M13.5 22C13.7761 22 14 22.2239 14 22.5V27.5C14 27.7761 13.7761 28 13.5 28C13.2239 28 13 27.7761 13 27.5V22.5C13 22.2239 13.2239 22 13.5 22Z" fill="#181818"/>
</svg>
