<svg width="40" height="40" viewBox="0 0 40 40" fill="none" xmlns="http://www.w3.org/2000/svg">
<path fill-rule="evenodd" clip-rule="evenodd" d="M15.8333 15C15.6123 15 15.4004 15.0878 15.2441 15.2441C15.0878 15.4003 15 15.6123 15 15.8333V25.1666C15 25.3877 15.0878 25.5996 15.2441 25.7559C15.4004 25.9122 15.6123 26 15.8333 26H24.1667C24.3877 26 24.5996 25.9122 24.7559 25.7559C24.9122 25.5996 25 25.3877 25 25.1666V15.8333C25 15.6123 24.9122 15.4003 24.7559 15.2441C24.5996 15.0878 24.3877 15 24.1667 15H22.8333C22.5572 15 22.3333 14.7761 22.3333 14.5C22.3333 14.2238 22.5572 14 22.8333 14H24.1667C24.6529 14 25.1192 14.1931 25.463 14.5369C25.8068 14.8808 26 15.3471 26 15.8333V25.1666C26 25.6529 25.8068 26.1192 25.463 26.463C25.1192 26.8068 24.6529 27 24.1667 27H15.8333C15.3471 27 14.8808 26.8068 14.537 26.463C14.1932 26.1192 14 25.6529 14 25.1666V15.8333C14 15.3471 14.1932 14.8808 14.537 14.5369C14.8808 14.1931 15.3471 14 15.8333 14H17.5C17.7761 14 18 14.2238 18 14.5C18 14.7761 17.7761 15 17.5 15H15.8333Z" fill="#181818"/>
<path fill-rule="evenodd" clip-rule="evenodd" d="M18.1667 13.9999C18.0746 13.9999 18 14.0746 18 14.1666V15.8333C18 15.9253 18.0746 16 18.1667 16L21.8333 16C21.9254 16 22 15.9254 22 15.8333V14.1666C22 14.0746 21.9254 14 21.8333 14L18.1667 13.9999ZM17 14.1666C17 13.5223 17.5223 12.9999 18.1667 12.9999L21.8333 13C22.4777 13 23 13.5223 23 14.1666V15.8333C23 16.4777 22.4777 17 21.8333 17L18.1667 17C17.5223 17 17 16.4776 17 15.8333V14.1666Z" fill="#181818"/>
</svg>
